<svg xmlns="http://www.w3.org/2000/svg" viewBox="0 0 1075 585" width="1075" height="585">
	<style>
		tspan { white-space:pre }
		.shp0 { fill: #d8d8d8 } 
		.shp1 { fill: #44494f } 
		.shp2 { fill: #f89523 } 
		.shp3 { fill: none;stroke: #3f3d56 } 
		.shp4 { fill: #607c98 } 
		.shp5 { fill: #2f2e41 } 
		.shp6 { fill: #ffffff } 
		.shp7 { opacity: 0.302;fill: #44494f } 
	</style>
	<path id="Layer" class="shp0" d="M540.64 584.23C248.94 584.23 13.14 568.62 13.14 549.31C13.14 530 248.94 514.39 540.64 514.39C832.35 514.39 1068.14 530 1068.14 549.31C1068.14 568.62 832.35 584.23 540.64 584.23Z" />
	<path id="Layer" fill-rule="evenodd" class="shp1" d="M671.75 350.81C671.75 492.94 606.37 535.22 520.43 535.22C434.48 535.22 372.77 496.62 372.77 350.81C372.77 222.15 434.48 167.01 520.43 167.01C606.37 167.01 671.75 198.87 671.75 350.81ZM614.16 350.9C614.16 245.66 581.79 214.8 522.26 214.8C462.74 214.8 430.36 261.79 430.36 350.9C430.36 451.9 461.46 486.82 520.99 486.82C580.52 486.82 614.16 449.35 614.16 350.9Z" />
	<path id="Layer" class="shp2" d="M321.31 433.52L285.78 433.52L285.78 328.88C285.78 326.13 285.23 323.4 284.18 320.86C283.13 318.32 281.59 316.01 279.64 314.06C277.69 312.11 275.38 310.57 272.84 309.52C270.3 308.46 267.57 307.92 264.82 307.92L256.49 307.92C253.74 307.92 251.02 308.46 248.48 309.52C245.93 310.57 243.62 312.11 241.68 314.06C239.73 316.01 238.19 318.32 237.13 320.86C236.08 323.4 235.54 326.13 235.54 328.88L235.54 433.52L135.31 433.52C133.25 433.52 131.22 432.98 129.42 431.97C127.63 430.96 126.13 429.49 125.06 427.73C124 425.96 123.41 423.95 123.35 421.89C123.29 419.83 123.77 417.79 124.73 415.96L230.81 215.18C232.14 212.68 232.94 209.94 233.17 207.11C233.4 204.29 233.06 201.45 232.17 198.77C231.27 196.08 229.84 193.61 227.96 191.49C226.08 189.37 223.79 187.65 221.23 186.45L214.97 183.49C212.56 182.35 209.96 181.68 207.3 181.52C204.64 181.36 201.97 181.7 199.44 182.54C196.91 183.38 194.57 184.69 192.53 186.4C190.49 188.12 188.8 190.21 187.54 192.56L58.16 434.59C57.61 435.62 57.13 436.67 56.71 437.76C56.29 438.84 55.94 439.95 55.66 441.08C55.37 442.21 55.16 443.35 55.02 444.51C54.88 445.66 54.8 446.82 54.8 447.99L54.8 447.99C54.8 451.72 55.54 455.41 56.97 458.86C58.4 462.31 60.49 465.44 63.13 468.08C65.77 470.72 68.9 472.81 72.35 474.24C75.79 475.67 79.49 476.4 83.22 476.4L235.54 476.4L235.54 542.57C235.54 545.87 236.19 549.14 237.45 552.18C238.71 555.23 240.56 558 242.9 560.33C245.23 562.66 248 564.51 251.05 565.78C254.09 567.04 257.36 567.69 260.66 567.69L260.66 567.69C263.96 567.69 267.22 567.04 270.27 565.78C273.32 564.51 276.09 562.66 278.42 560.33C280.75 558 282.6 555.23 283.86 552.18C285.13 549.14 285.78 545.87 285.78 542.57L285.78 476.4L321.31 476.4C324.13 476.4 326.92 475.85 329.52 474.77C332.12 473.69 334.48 472.11 336.47 470.12C338.46 468.13 340.04 465.77 341.12 463.17C342.2 460.56 342.75 457.78 342.75 454.96L342.75 454.96C342.75 452.14 342.2 449.36 341.12 446.75C340.04 444.15 338.47 441.79 336.47 439.8C334.48 437.81 332.12 436.23 329.52 435.15C326.92 434.07 324.13 433.52 321.31 433.52L321.31 433.52Z" />
	<path id="Layer" class="shp2" d="M979.31 433.52L943.77 433.52L943.77 328.88C943.77 326.13 943.23 323.4 942.18 320.86C941.13 318.32 939.58 316.01 937.64 314.06C935.69 312.11 933.38 310.57 930.84 309.52C928.29 308.46 925.57 307.92 922.82 307.92L914.49 307.92C911.74 307.92 909.01 308.46 906.47 309.52C903.93 310.57 901.62 312.11 899.67 314.06C897.73 316.01 896.18 318.32 895.13 320.86C894.08 323.4 893.54 326.13 893.54 328.88L893.54 433.52L793.31 433.52C791.24 433.52 789.22 432.98 787.42 431.97C785.63 430.96 784.12 429.49 783.06 427.73C781.99 425.96 781.4 423.95 781.35 421.89C781.29 419.83 781.76 417.79 782.73 415.96L888.81 215.18C890.13 212.68 890.93 209.94 891.17 207.11C891.4 204.29 891.06 201.45 890.16 198.77C889.27 196.08 887.84 193.61 885.96 191.49C884.08 189.37 881.79 187.65 879.23 186.45L872.97 183.49C870.56 182.35 867.95 181.68 865.29 181.52C862.64 181.36 859.97 181.7 857.44 182.54C854.91 183.38 852.56 184.69 850.53 186.4C848.49 188.12 846.79 190.21 845.54 192.56L716.16 434.59C715.61 435.62 715.12 436.67 714.71 437.76C714.29 438.84 713.94 439.95 713.65 441.08C713.37 442.21 713.16 443.35 713.01 444.51C712.87 445.66 712.8 446.82 712.8 447.99L712.8 447.99C712.8 451.72 713.54 455.41 714.96 458.86C716.39 462.31 718.48 465.44 721.12 468.08C723.76 470.72 726.89 472.81 730.34 474.24C733.79 475.67 737.49 476.4 741.22 476.4L893.54 476.4L893.54 542.57C893.54 545.87 894.19 549.14 895.45 552.18C896.71 555.23 898.56 558 900.89 560.33C903.23 562.66 905.99 564.51 909.04 565.78C912.09 567.04 915.36 567.69 918.65 567.69L918.65 567.69C921.95 567.69 925.22 567.04 928.27 565.78C931.31 564.51 934.08 562.66 936.42 560.33C938.75 558 940.6 555.23 941.86 552.18C943.12 549.14 943.77 545.87 943.77 542.57L943.77 476.4L979.31 476.4C982.12 476.4 984.91 475.85 987.51 474.77C990.12 473.69 992.48 472.11 994.47 470.12C996.46 468.13 998.04 465.77 999.12 463.17C1000.2 460.56 1000.75 457.78 1000.75 454.96L1000.75 454.96C1000.75 452.14 1000.2 449.36 999.12 446.75C998.04 444.15 996.46 441.79 994.47 439.8C992.48 437.81 990.12 436.23 987.51 435.15C984.91 434.07 982.12 433.52 979.31 433.52L979.31 433.52Z" />
	<path id="Layer" class="shp3" d="M331.11 421.26L295.58 421.26L295.58 316.62C295.58 313.87 295.04 311.15 293.98 308.6C292.93 306.06 291.39 303.75 289.44 301.81C287.5 299.86 285.19 298.32 282.64 297.26C280.1 296.21 277.38 295.67 274.62 295.67L266.3 295.67C263.55 295.67 260.82 296.21 258.28 297.26C255.74 298.32 253.43 299.86 251.48 301.81C249.53 303.75 247.99 306.06 246.94 308.6C245.88 311.15 245.34 313.87 245.34 316.62L245.34 421.26L145.11 421.26C143.05 421.26 141.02 420.73 139.23 419.72C137.43 418.7 135.93 417.24 134.86 415.48C133.8 413.71 133.21 411.7 133.15 409.64C133.09 407.58 133.57 405.53 134.53 403.71L240.62 202.93C241.94 200.43 242.74 197.68 242.97 194.86C243.21 192.04 242.86 189.2 241.97 186.51C241.07 183.83 239.64 181.35 237.76 179.23C235.88 177.12 233.6 175.4 231.04 174.19L224.77 171.24C222.36 170.1 219.76 169.43 217.1 169.27C214.44 169.11 211.78 169.45 209.25 170.29C206.72 171.12 204.37 172.44 202.33 174.15C200.29 175.87 198.6 177.96 197.34 180.31L67.96 422.34C67.41 423.36 66.93 424.42 66.51 425.51C66.09 426.59 65.74 427.7 65.46 428.83C65.18 429.96 64.96 431.1 64.82 432.26C64.68 433.41 64.61 434.57 64.61 435.73L64.61 435.73C64.61 439.47 65.34 443.16 66.77 446.61C68.2 450.06 70.29 453.19 72.93 455.83C75.57 458.47 78.7 460.56 82.15 461.99C85.6 463.41 89.29 464.15 93.02 464.15L245.34 464.15L245.34 530.32C245.34 533.62 245.99 536.88 247.25 539.93C248.52 542.98 250.37 545.75 252.7 548.08C255.03 550.41 257.8 552.26 260.85 553.52C263.9 554.79 267.16 555.44 270.46 555.44L270.46 555.44C273.76 555.44 277.03 554.79 280.07 553.52C283.12 552.26 285.89 550.41 288.22 548.08C290.55 545.75 292.41 542.98 293.67 539.93C294.93 536.88 295.58 533.62 295.58 530.32L295.58 464.15L331.11 464.15C333.93 464.15 336.72 463.6 339.32 462.52C341.92 461.44 344.29 459.86 346.28 457.87C348.27 455.88 349.85 453.51 350.92 450.91C352 448.31 352.56 445.52 352.56 442.71L352.56 442.71C352.56 439.89 352 437.1 350.92 434.5C349.85 431.9 348.27 429.54 346.28 427.54C344.29 425.55 341.92 423.97 339.32 422.9C336.72 421.82 333.93 421.26 331.11 421.26L331.11 421.26Z" />
	<path id="Layer" class="shp3" d="M997.69 421.26L962.15 421.26L962.15 316.62C962.15 313.87 961.61 311.15 960.56 308.6C959.51 306.06 957.96 303.75 956.02 301.81C954.07 299.86 951.76 298.32 949.22 297.26C946.67 296.21 943.95 295.67 941.2 295.67L932.87 295.67C930.12 295.67 927.39 296.21 924.85 297.26C922.31 298.32 920 299.86 918.05 301.81C916.11 303.75 914.56 306.06 913.51 308.6C912.46 311.15 911.92 313.87 911.92 316.62L911.92 421.26L811.69 421.26C809.62 421.26 807.6 420.73 805.8 419.72C804.01 418.7 802.5 417.24 801.44 415.48C800.37 413.71 799.78 411.7 799.73 409.64C799.67 407.58 800.14 405.53 801.11 403.71L907.19 202.93C908.51 200.43 909.31 197.68 909.55 194.86C909.78 192.04 909.44 189.2 908.54 186.51C907.65 183.83 906.22 181.35 904.34 179.23C902.46 177.12 900.17 175.4 897.61 174.19L891.35 171.24C888.94 170.1 886.33 169.43 883.67 169.27C881.02 169.11 878.35 169.45 875.82 170.29C873.29 171.12 870.94 172.44 868.9 174.15C866.87 175.87 865.17 177.96 863.92 180.31L734.54 422.34C733.99 423.36 733.5 424.42 733.09 425.51C732.67 426.59 732.31 427.7 732.03 428.83C731.75 429.96 731.54 431.1 731.39 432.26C731.25 433.41 731.18 434.57 731.18 435.73L731.18 435.73C731.18 439.47 731.92 443.16 733.34 446.61C734.77 450.06 736.86 453.19 739.5 455.83C742.14 458.47 745.27 460.56 748.72 461.99C752.17 463.41 755.86 464.15 759.6 464.15L911.92 464.15L911.92 530.32C911.92 533.62 912.56 536.88 913.83 539.93C915.09 542.98 916.94 545.75 919.27 548.08C921.6 550.41 924.37 552.26 927.42 553.52C930.47 554.79 933.74 555.44 937.03 555.44L937.03 555.44C940.33 555.44 943.6 554.79 946.65 553.52C949.69 552.26 952.46 550.41 954.8 548.08C957.13 545.75 958.98 542.98 960.24 539.93C961.5 536.88 962.15 533.62 962.15 530.32L962.15 464.15L997.69 464.15C1000.5 464.15 1003.29 463.6 1005.89 462.52C1008.5 461.44 1010.86 459.86 1012.85 457.87C1014.84 455.88 1016.42 453.51 1017.5 450.91C1018.58 448.31 1019.13 445.52 1019.13 442.71L1019.13 442.71C1019.13 439.89 1018.58 437.1 1017.5 434.5C1016.42 431.9 1014.84 429.54 1012.85 427.54C1010.86 425.55 1008.5 423.97 1005.89 422.9C1003.29 421.82 1000.5 421.26 997.69 421.26L997.69 421.26Z" />
	<path id="Layer" fill-rule="evenodd" class="shp3" d="M691.36 339.78C691.36 481.92 625.97 524.19 540.03 524.19C454.09 524.19 392.38 485.59 392.38 339.78C392.38 211.12 454.09 155.98 540.03 155.98C625.97 155.98 691.36 187.84 691.36 339.78ZM540.6 475.79C600.12 475.79 633.77 438.32 633.77 339.87C633.77 234.64 601.4 203.77 541.87 203.77C482.34 203.77 449.97 250.76 449.97 339.87C449.97 440.87 481.07 475.79 540.6 475.79L540.6 475.79Z" />
	<path id="Layer" class="shp4" d="M1006.86 419.55C1013.01 421.78 1019.84 421 1025.32 417.44C1030.8 413.88 1034.28 407.95 1034.74 401.43C1035.19 394.91 1032.55 388.56 1027.62 384.27C1022.69 379.99 1016.03 378.27 1009.64 379.63L1010.16 390.35L1005.09 381.17C1003.86 381.74 1002.69 382.44 1001.6 383.25C1000.51 384.05 999.5 384.96 998.58 385.97C997.67 386.97 996.85 388.06 996.15 389.22C995.45 390.38 994.87 391.61 994.4 392.89C994.24 393.34 994.09 393.8 993.96 394.26C993.82 394.72 993.71 395.19 993.61 395.66C993.51 396.13 993.42 396.61 993.36 397.08C993.29 397.56 993.24 398.04 993.21 398.52C993.05 400.76 993.25 403.01 993.82 405.19C994.38 407.37 995.29 409.44 996.51 411.32C997.74 413.21 999.26 414.88 1001.02 416.28C1002.78 417.68 1004.75 418.78 1006.86 419.55Z" />
	<path id="Layer" class="shp3" d="M1031.94 543.79C1030.15 534.68 1037.9 526.61 1045.56 521.36C1053.22 516.11 1062.17 510.95 1064.78 502.04C1068.53 489.24 1057.35 477.51 1048.64 467.4C1047.03 465.52 1045.47 463.6 1043.97 461.64C1042.48 459.67 1041.03 457.66 1039.65 455.61C1038.27 453.56 1036.96 451.47 1035.7 449.34C1034.44 447.21 1033.25 445.04 1032.12 442.84C1030.31 439.31 1028.64 435.62 1028.17 431.67C1027.48 426 1029.31 420.35 1031.14 414.94C1037.26 396.9 1043.8 379.02 1050.77 361.29" />
	<path id="Layer" class="shp3" d="M1007.72 416.79C1013.86 419.02 1020.7 418.24 1026.17 414.68C1031.65 411.12 1035.14 405.19 1035.59 398.67C1036.05 392.15 1033.41 385.8 1028.48 381.52C1023.54 377.23 1016.88 375.51 1010.49 376.88L1011.01 387.59L1005.95 378.41C1004.72 378.99 1003.55 379.68 1002.46 380.49C1001.36 381.29 1000.35 382.2 999.44 383.21C998.52 384.21 997.71 385.3 997.01 386.46C996.31 387.63 995.72 388.85 995.26 390.13C995.1 390.58 994.95 391.04 994.81 391.5C994.68 391.97 994.56 392.43 994.46 392.9C994.36 393.37 994.28 393.85 994.21 394.32C994.15 394.8 994.1 395.28 994.06 395.76C993.91 398 994.11 400.26 994.67 402.43C995.23 404.61 996.14 406.68 997.37 408.56C998.59 410.45 1000.11 412.12 1001.87 413.52C1003.63 414.92 1005.61 416.02 1007.72 416.79L1007.72 416.79Z" />
	<path id="Layer" class="shp4" d="M1029.4 357.59C1029.99 355.95 1030.78 354.4 1031.76 352.97C1032.74 351.53 1033.9 350.22 1035.2 349.07C1036.5 347.92 1037.95 346.94 1039.49 346.15C1041.04 345.36 1042.68 344.77 1044.38 344.39L1046.09 354.57L1049.27 343.88C1058.32 344.01 1066.25 349.98 1068.87 358.64C1071.5 367.31 1068.23 376.67 1060.78 381.82C1053.33 386.96 1043.41 386.69 1036.24 381.16C1029.08 375.63 1026.31 366.1 1029.4 357.59L1029.4 357.59Z" />
	<path id="Layer" class="shp3" d="M1030.54 353.91C1031.13 352.28 1031.93 350.72 1032.91 349.29C1033.88 347.85 1035.04 346.54 1036.34 345.4C1037.65 344.25 1039.09 343.27 1040.64 342.48C1042.18 341.69 1043.82 341.09 1045.52 340.71L1047.23 350.9L1050.41 340.2C1059.46 340.34 1067.39 346.31 1070.02 354.97C1072.64 363.63 1069.37 373 1061.92 378.14C1054.47 383.28 1044.55 383.01 1037.38 377.48C1030.22 371.95 1027.45 362.42 1030.54 353.91L1030.54 353.91Z" />
	<path id="Layer" class="shp4" d="M1044.99 467.6C1049.79 469.35 1055.07 469.26 1059.82 467.36C1064.56 465.46 1068.44 461.89 1070.72 457.31C1072.99 452.74 1073.51 447.48 1072.16 442.55C1070.81 437.62 1067.7 433.36 1063.41 430.58L1060.97 438.8L1059.24 428.5C1059.23 428.5 1059.23 428.49 1059.22 428.49C1059.22 428.49 1059.22 428.49 1059.21 428.49C1059.21 428.48 1059.2 428.48 1059.2 428.48C1059.19 428.48 1059.19 428.48 1059.18 428.48C1053.99 426.59 1048.27 426.84 1043.27 429.18C1038.26 431.52 1034.4 435.75 1032.51 440.94C1030.63 446.13 1030.89 451.86 1033.23 456.86C1035.57 461.86 1039.8 465.72 1044.99 467.6L1044.99 467.6Z" />
	<path id="Layer" class="shp3" d="M1045.98 463.88C1050.79 465.62 1056.06 465.54 1060.81 463.64C1065.55 461.74 1069.43 458.16 1071.71 453.59C1073.99 449.01 1074.5 443.76 1073.15 438.83C1071.8 433.9 1068.69 429.64 1064.4 426.86L1061.96 435.08L1060.23 424.77C1060.22 424.77 1060.22 424.77 1060.21 424.77C1060.21 424.76 1060.21 424.76 1060.2 424.76C1060.2 424.76 1060.19 424.76 1060.19 424.76C1060.18 424.76 1060.18 424.75 1060.17 424.75C1054.99 422.87 1049.26 423.12 1044.26 425.46C1039.25 427.79 1035.39 432.02 1033.5 437.21C1031.62 442.41 1031.88 448.13 1034.22 453.13C1036.56 458.13 1040.79 462 1045.98 463.88L1045.98 463.88Z" />
	<path id="Layer" class="shp4" d="M1023.32 502.17C1025.03 511.85 1033.28 519.02 1043.11 519.36C1052.94 519.69 1061.66 513.09 1064.01 503.54C1066.36 493.99 1061.7 484.09 1052.84 479.83C1043.98 475.56 1033.34 478.08 1027.33 485.87L1036.61 499.83L1023.94 492.42C1023.69 493.2 1023.5 494 1023.35 494.81C1023.2 495.62 1023.1 496.44 1023.04 497.26C1022.99 498.08 1022.99 498.9 1023.04 499.72C1023.08 500.54 1023.18 501.36 1023.32 502.17L1023.32 502.17Z" />
	<path id="Layer" class="shp3" d="M1024.18 499.41C1025.88 509.1 1034.14 516.27 1043.97 516.6C1053.8 516.93 1062.52 510.33 1064.87 500.78C1067.22 491.23 1062.56 481.34 1053.7 477.07C1044.83 472.8 1034.2 475.32 1028.19 483.11L1037.46 497.07L1024.79 489.66C1024.55 490.45 1024.35 491.24 1024.2 492.05C1024.05 492.86 1023.95 493.68 1023.9 494.5C1023.85 495.32 1023.85 496.14 1023.89 496.96C1023.94 497.78 1024.04 498.6 1024.18 499.41L1024.18 499.41Z" />
	<path id="Layer" class="shp4" d="M9.01 470.25C13.04 471.72 17.53 471.2 21.13 468.86C24.73 466.52 27.02 462.63 27.32 458.34C27.62 454.06 25.89 449.89 22.64 447.07C19.4 444.26 15.03 443.13 10.83 444.02L11.17 451.06L7.84 445.03C7.03 445.41 6.27 445.87 5.55 446.4C4.83 446.93 4.17 447.52 3.57 448.18C2.96 448.84 2.43 449.56 1.97 450.32C1.51 451.09 1.12 451.89 0.82 452.73C0.71 453.03 0.61 453.33 0.53 453.63C0.44 453.94 0.36 454.24 0.3 454.55C0.23 454.86 0.18 455.17 0.13 455.49C0.09 455.8 0.06 456.12 0.03 456.43C-0.07 457.9 0.07 459.38 0.43 460.81C0.8 462.24 1.4 463.6 2.21 464.84C3.01 466.08 4.01 467.18 5.17 468.1C6.32 469.02 7.62 469.74 9.01 470.25Z" />
	<path id="Layer" class="shp3" d="M25.48 551.88C24.31 545.89 29.4 540.59 34.43 537.14C39.46 533.69 45.34 530.3 47.06 524.45C49.53 516.03 42.18 508.33 36.46 501.69C35.4 500.45 34.38 499.19 33.39 497.9C32.41 496.61 31.46 495.29 30.55 493.94C29.64 492.59 28.78 491.22 27.95 489.82C27.13 488.42 26.34 487 25.6 485.55C25.28 484.98 24.98 484.4 24.71 483.81C24.44 483.22 24.2 482.61 23.98 482C23.76 481.38 23.57 480.76 23.41 480.13C23.25 479.5 23.11 478.86 23 478.21C22.55 474.49 23.75 470.78 24.96 467.22C28.98 455.37 33.28 443.62 37.86 431.97" />
	<path id="Layer" class="shp3" d="M9.57 468.44C13.61 469.9 18.1 469.39 21.7 467.05C25.29 464.71 27.59 460.82 27.88 456.53C28.18 452.25 26.45 448.08 23.21 445.26C19.97 442.45 15.59 441.32 11.39 442.21L11.73 449.25L8.4 443.22C7.6 443.6 6.83 444.05 6.11 444.58C5.39 445.11 4.73 445.71 4.13 446.37C3.53 447.03 2.99 447.75 2.53 448.51C2.07 449.27 1.69 450.08 1.38 450.92C1.28 451.22 1.18 451.52 1.09 451.82C1 452.13 0.93 452.43 0.86 452.74C0.79 453.05 0.74 453.36 0.7 453.68C0.65 453.99 0.62 454.3 0.6 454.62C0.49 456.09 0.63 457.57 1 459C1.37 460.43 1.96 461.79 2.77 463.03C3.57 464.27 4.57 465.37 5.73 466.29C6.89 467.21 8.18 467.93 9.57 468.44Z" />
	<path id="Layer" class="shp4" d="M23.81 429.54C24.2 428.47 24.72 427.45 25.37 426.5C26.01 425.56 26.77 424.7 27.62 423.94C28.48 423.19 29.43 422.55 30.45 422.03C31.46 421.51 32.54 421.12 33.65 420.87L34.78 427.56L36.87 420.53C42.81 420.62 48.02 424.54 49.75 430.23C51.48 435.92 49.32 442.08 44.43 445.46C39.53 448.83 33.02 448.66 28.31 445.02C23.6 441.39 21.78 435.13 23.81 429.54L23.81 429.54Z" />
	<path id="Layer" class="shp3" d="M24.56 427.12C24.95 426.05 25.47 425.03 26.12 424.09C26.76 423.14 27.52 422.28 28.38 421.53C29.23 420.77 30.18 420.13 31.2 419.61C32.21 419.09 33.29 418.7 34.41 418.45L35.53 425.14L37.62 418.12C43.57 418.2 48.77 422.13 50.5 427.82C52.23 433.51 50.08 439.66 45.18 443.04C40.29 446.42 33.77 446.24 29.06 442.61C24.35 438.97 22.53 432.71 24.56 427.12L24.56 427.12Z" />
	<path id="Layer" class="shp4" d="M34.06 501.82C37.21 502.97 40.68 502.91 43.8 501.66C46.92 500.42 49.47 498.06 50.96 495.06C52.46 492.05 52.79 488.6 51.91 485.36C51.02 482.12 48.98 479.32 46.16 477.5L44.56 482.9L43.42 476.13C43.42 476.13 43.41 476.12 43.41 476.12C43.41 476.12 43.4 476.12 43.4 476.12C43.4 476.12 43.39 476.12 43.39 476.12C43.39 476.12 43.39 476.12 43.38 476.11C39.97 474.87 36.21 475.04 32.92 476.58C29.64 478.11 27.09 480.89 25.86 484.3C24.62 487.71 24.79 491.47 26.33 494.76C27.86 498.05 30.65 500.59 34.06 501.82L34.06 501.82Z" />
	<path id="Layer" class="shp3" d="M34.71 499.37C37.86 500.52 41.33 500.46 44.45 499.22C47.57 497.97 50.12 495.62 51.61 492.61C53.11 489.61 53.44 486.15 52.56 482.92C51.67 479.68 49.63 476.88 46.81 475.05L45.21 480.45L44.07 473.68C44.07 473.68 44.06 473.68 44.06 473.68C44.06 473.68 44.05 473.67 44.05 473.67C44.05 473.67 44.05 473.67 44.04 473.67C44.04 473.67 44.04 473.67 44.03 473.67C40.62 472.43 36.86 472.6 33.58 474.13C30.29 475.67 27.75 478.45 26.52 481.86C25.28 485.27 25.45 489.03 26.98 492.31C28.52 495.6 31.3 498.14 34.71 499.37L34.71 499.37Z" />
	<path id="Layer" class="shp4" d="M19.82 524.53C20.94 530.89 26.36 535.61 32.82 535.82C39.28 536.04 45.01 531.71 46.55 525.43C48.1 519.16 45.04 512.66 39.21 509.85C33.39 507.05 26.4 508.7 22.46 513.82L28.55 522.99L20.22 518.12C20.06 518.64 19.93 519.17 19.84 519.7C19.74 520.23 19.67 520.76 19.64 521.3C19.6 521.84 19.6 522.38 19.63 522.92C19.66 523.46 19.73 524 19.82 524.53Z" />
	<path id="Layer" class="shp3" d="M20.39 522.72C21.5 529.08 26.93 533.79 33.39 534.01C39.84 534.23 45.57 529.89 47.12 523.62C48.66 517.34 45.6 510.84 39.78 508.04C33.96 505.23 26.96 506.89 23.02 512.01L29.11 521.18L20.79 516.31C20.63 516.83 20.5 517.35 20.4 517.88C20.3 518.42 20.24 518.95 20.2 519.49C20.17 520.03 20.17 520.57 20.2 521.11C20.23 521.65 20.29 522.19 20.39 522.72L20.39 522.72Z" />
	<path id="Layer" class="shp5" d="M480.95 341.12C471.55 341.12 463.95 331.28 463.95 319.12C463.95 306.95 471.55 297.12 480.95 297.12C490.35 297.12 497.95 306.95 497.95 319.12C497.95 331.28 490.35 341.12 480.95 341.12Z" />
	<path id="Layer" class="shp5" d="M573.45 341.62C564.05 341.62 556.45 331.78 556.45 319.62C556.45 307.45 564.05 297.62 573.45 297.62C582.85 297.62 590.45 307.45 590.45 319.62C590.45 331.78 582.85 341.62 573.45 341.62Z" />
	<path id="Layer" class="shp5" d="M560.45 384.62C560.45 394.56 546.57 402.62 529.45 402.62C512.33 402.62 498.45 394.56 498.45 384.62C498.45 376.01 508.86 368.81 522.77 367.05C523.32 366.97 523.87 366.91 524.43 366.85C524.99 366.8 525.54 366.75 526.1 366.72C526.66 366.68 527.21 366.66 527.77 366.64C528.33 366.62 528.89 366.61 529.45 366.62C530.38 366.61 531.32 366.64 532.25 366.68C533.18 366.73 534.11 366.81 535.04 366.91C535.97 367.01 536.9 367.13 537.82 367.28C538.75 367.44 539.66 367.61 540.58 367.82C552.2 370.41 560.45 376.96 560.45 384.62Z" />
	<path id="Layer" class="shp3" d="M484.95 336.12C475.55 336.12 467.95 326.28 467.95 314.12C467.95 301.95 475.55 292.12 484.95 292.12C494.35 292.12 501.95 301.95 501.95 314.12C501.95 326.28 494.35 336.12 484.95 336.12Z" />
	<path id="Layer" class="shp3" d="M577.45 336.62C568.05 336.62 560.45 326.78 560.45 314.62C560.45 302.45 568.05 292.62 577.45 292.62C586.85 292.62 594.45 302.45 594.45 314.62C594.45 326.78 586.85 336.62 577.45 336.62Z" />
	<path id="Layer" class="shp3" d="M533.45 397.62C516.3 397.62 502.45 389.57 502.45 379.62C502.45 369.66 516.3 361.62 533.45 361.62C550.59 361.62 564.45 369.66 564.45 379.62C564.45 389.57 550.59 397.62 533.45 397.62Z" />
	<path id="Layer" class="shp6" d="M540.95 369.32C540.95 369.63 540.92 369.94 540.86 370.24C540.81 370.55 540.72 370.85 540.61 371.14C540.5 371.43 540.36 371.71 540.19 371.97C540.03 372.23 539.84 372.48 539.63 372.71C539.42 372.93 539.2 373.13 538.96 373.3C538.72 373.47 538.46 373.62 538.18 373.74C537.91 373.86 537.63 373.96 537.33 374.02C537.04 374.08 536.74 374.11 536.45 374.12L526.45 374.12C525.84 374.09 525.24 373.95 524.68 373.7C524.12 373.45 523.62 373.09 523.21 372.64C522.79 372.2 522.46 371.68 522.25 371.1C522.03 370.53 521.93 369.93 521.95 369.32C521.94 369.07 521.96 368.83 522 368.59C522.03 368.35 522.08 368.12 522.15 367.88C522.22 367.65 522.31 367.43 522.41 367.21C522.51 366.99 522.63 366.78 522.77 366.57C523.32 366.5 523.87 366.43 524.43 366.37C524.98 366.31 525.54 366.26 526.1 366.23C526.65 366.19 527.21 366.16 527.77 366.14C528.33 366.12 528.89 366.11 529.45 366.12C530.38 366.11 531.32 366.14 532.25 366.19C533.19 366.24 534.12 366.32 535.05 366.43C535.98 366.53 536.9 366.67 537.83 366.83C538.75 366.99 539.67 367.18 540.58 367.4C540.64 367.55 540.69 367.7 540.74 367.86C540.78 368.02 540.82 368.18 540.85 368.34C540.89 368.5 540.91 368.66 540.92 368.82C540.94 368.99 540.95 369.15 540.95 369.32Z" />
	<path id="Layer" class="shp6" d="M484.95 313.12C482.18 313.12 479.95 310.88 479.95 308.12C479.95 305.35 482.18 303.12 484.95 303.12C487.71 303.12 489.95 305.35 489.95 308.12C489.95 310.88 487.71 313.12 484.95 313.12Z" />
	<path id="Layer" class="shp6" d="M577.95 313.12C575.18 313.12 572.95 310.88 572.95 308.12C572.95 305.35 575.18 303.12 577.95 303.12C580.71 303.12 582.95 305.35 582.95 308.12C582.95 310.88 580.71 313.12 577.95 313.12Z" />
	<path id="Layer" class="shp7" d="M582.95 360.12C580.18 360.12 577.95 357.88 577.95 355.12C577.95 352.35 580.18 350.12 582.95 350.12C585.71 350.12 587.95 352.35 587.95 355.12C587.95 357.88 585.71 360.12 582.95 360.12Z" />
	<path id="Layer" class="shp7" d="M460.95 360.12C458.18 360.12 455.95 357.88 455.95 355.12C455.95 352.35 458.18 350.12 460.95 350.12C463.71 350.12 465.95 352.35 465.95 355.12C465.95 357.88 463.71 360.12 460.95 360.12Z" />
</svg>